<svg xmlns="http://www.w3.org/2000/svg" viewBox="0 0 64 64">
  <rect width="64" height="64" rx="14" fill="#1B2A4A"/>
  <!-- Brain shape -->
  <g fill="none" stroke="#5EEAD4" stroke-width="2.2" stroke-linecap="round" stroke-linejoin="round">
    <!-- Left hemisphere -->
    <path d="M32 14 C28 14 22 16 20 20 C17 24 17 28 19 31 C16 33 15 37 17 40 C19 43 23 44 26 43 C27 46 30 48 32 48"/>
    <!-- Right hemisphere -->
    <path d="M32 14 C36 14 42 16 44 20 C47 24 47 28 45 31 C48 33 49 37 47 40 C45 43 41 44 38 43 C37 46 34 48 32 48"/>
    <!-- Center line -->
    <line x1="32" y1="14" x2="32" y2="48"/>
    <!-- Left folds -->
    <path d="M22 24 C24 22 27 22 28 24"/>
    <path d="M20 31 C22 29 25 30 26 32"/>
    <path d="M21 38 C23 36 26 37 27 39"/>
    <!-- Right folds -->
    <path d="M42 24 C40 22 37 22 36 24"/>
    <path d="M44 31 C42 29 39 30 38 32"/>
    <path d="M43 38 C41 36 38 37 37 39"/>
  </g>
</svg>
